<svg xmlns="http://www.w3.org/2000/svg" xmlns:xlink="http://www.w3.org/1999/xlink" id="Calque_1" x="0px" y="0px" viewBox="0 0 145 22.6" style="enable-background:new 0 0 145 22.6;" xml:space="preserve"><style type="text/css">	.st0{fill:#444070;}</style><g>	<path class="st0" d="M7.9,2c2.2,0,4.1,0.9,5.6,2.3c1.4,1.4,2.3,3.4,2.3,5.6s-0.9,4.1-2.3,5.6c-1.4,1.4-3.4,2.3-5.6,2.3H0v-3.1h7.9  c1.3,0,2.5-0.5,3.3-1.4c0.9-0.9,1.4-2,1.4-3.3c0-1.3-0.5-2.5-1.4-3.3c-0.9-0.9-2-1.4-3.3-1.4H0V2H7.9z M2.2,7.7l2.2,2.2l-2.2,2.2  L0,9.9L2.2,7.7z"></path>	<path class="st0" d="M21.2,0l2.2,2.2l-2.2,2.2L19,2.2L21.2,0z M19.6,5.3h3.1v12.5h-3.1V5.3z"></path>	<path class="st0" d="M36,5.3h3.1v11c0,1.7-0.7,3.3-1.8,4.4c-1.1,1.1-2.7,1.8-4.4,1.8c-0.7,0-1.4-0.1-2.1-0.3  c-0.8-0.2-1.5-0.4-2-0.7L27.4,21l1.3-2.9l1.4,0.7c0.4,0.2,0.9,0.3,1.4,0.5c0.5,0.1,0.9,0.2,1.4,0.2c0.9,0,1.6-0.3,2.2-0.9  c0.4-0.4,0.7-0.9,0.8-1.5c-0.9,0.5-1.9,0.8-3,0.8c-1.7,0-3.3-0.7-4.4-1.8c-1.1-1.1-1.8-2.7-1.8-4.4c0-1.7,0.7-3.3,1.8-4.4  c1.1-1.1,2.7-1.8,4.4-1.8c1.1,0,2.2,0.3,3.1,0.8V5.3z M32.9,8.4c-0.9,0-1.6,0.3-2.2,0.9c-0.6,0.6-0.9,1.3-0.9,2.2  c0,0.9,0.3,1.6,0.9,2.2c0.6,0.6,1.3,0.9,2.2,0.9c0.9,0,1.6-0.3,2.2-0.9c0.6-0.6,0.9-1.3,0.9-2.2c0-0.9-0.3-1.6-0.9-2.2  C34.5,8.8,33.7,8.4,32.9,8.4z"></path>	<path class="st0" d="M45.2,0l2.2,2.2l-2.2,2.2L43,2.2L45.2,0z M43.6,5.3h3.1v12.5h-3.1V5.3z"></path>	<path class="st0" d="M54.1,16.2v1.6H51V5.3h3.1v0.6c0.8-0.4,1.6-0.6,2.5-0.6c1.6,0,3,0.7,4,1.8l0,0l0,0c1-1.1,2.5-1.8,4-1.8  c1.6,0,3,0.7,4,1.8c1,1.1,1.6,2.6,1.6,4.2v6.5h-3.1v-6.5c0-0.8-0.3-1.6-0.8-2.1c-0.4-0.5-1.1-0.8-1.7-0.8c-0.7,0-1.3,0.3-1.7,0.8  c-0.5,0.5-0.8,1.3-0.8,2.1v6.5h-3.1v-6.5c0-0.8-0.3-1.6-0.8-2.1c-0.4-0.5-1.1-0.8-1.7-0.8c-0.7,0-1.3,0.3-1.7,0.8  c-0.5,0.5-0.8,1.3-0.8,2.1L54.1,16.2L54.1,16.2z"></path>	<path class="st0" d="M77.8,22.6h-3.1V5.3h3.1v0.8c0.9-0.5,2-0.8,3.1-0.8c1.7,0,3.3,0.7,4.4,1.8c1.1,1.1,1.8,2.7,1.8,4.4  c0,1.7-0.7,3.3-1.8,4.4c-1.1,1.1-2.7,1.8-4.4,1.8c-1.1,0-2.2-0.3-3.1-0.8V22.6z M80.9,14.6c0.9,0,1.6-0.3,2.2-0.9  c0.6-0.6,0.9-1.3,0.9-2.2c0-0.9-0.3-1.6-0.9-2.2c-0.6-0.6-1.3-0.9-2.2-0.9c-0.9,0-1.6,0.3-2.2,0.9c-0.6,0.6-0.9,1.3-0.9,2.2  c0,0.9,0.3,1.6,0.9,2.2C79.2,14.3,80,14.6,80.9,14.6z"></path>	<path class="st0" d="M101,15.9c-0.6,0.6-1.3,1.1-2,1.4c-0.7,0.3-1.6,0.5-2.4,0.5c-1.7,0-3.3-0.7-4.4-1.8c-1.1-1.1-1.8-2.7-1.8-4.4  c0-1.7,0.7-3.3,1.8-4.4c1.1-1.1,2.7-1.8,4.4-1.8c1.7,0,3.3,0.7,4.4,1.8c1.1,1.1,1.8,2.7,1.8,4.4v1.6h-8.9c0.1,0.2,0.3,0.4,0.5,0.6  c0.6,0.6,1.3,0.9,2.2,0.9c0.4,0,0.8-0.1,1.2-0.2c0.4-0.2,0.7-0.4,1-0.7L101,15.9z M93.9,10h5.3c-0.1-0.2-0.3-0.4-0.5-0.6  c-0.6-0.6-1.3-0.9-2.2-0.9c-0.9,0-1.6,0.3-2.2,0.9C94.2,9.5,94.1,9.7,93.9,10z"></path>	<path class="st0" d="M109.8,17.8h-3.1V5.3h3.1V6c1-0.5,2.1-0.7,3.4-0.7h1.6v3.1h-1.6c-0.9,0-1.7,0.1-2.1,0.5  c-0.5,0.4-0.9,1.1-1.2,2.4V17.8z"></path>	<path class="st0" d="M119.8,0l2.2,2.2l-2.2,2.2l-2.2-2.2L119.8,0z M118.2,5.3h3.1v12.5h-3.1V5.3z"></path>	<path class="st0" d="M128.2,9l-1.5,0.6l-1.1-2.9l1.5-0.6c0.5-0.2,1.2-0.4,1.9-0.5c0.7-0.1,1.5-0.2,2.4-0.2c1.8,0,3.3,0.4,4.4,1.3  c1.2,0.9,1.9,2.2,1.9,3.9v7.4h-3.1v-0.1c-0.2,0-0.5,0.1-0.8,0.1H129c-1.1,0-2.1-0.4-2.8-1.1c-0.7-0.7-1.1-1.7-1.1-2.8  c0-1.1,0.4-2.1,1.1-2.8c0.7-0.7,1.7-1.1,2.8-1.1h4.7c0.2,0,0.5,0,0.7,0.1c-0.1-0.4-0.3-0.7-0.6-1c-0.5-0.4-1.4-0.6-2.5-0.6  c-0.7,0-1.3,0.1-1.8,0.2C129,8.7,128.6,8.8,128.2,9z M129,13.1c-0.2,0-0.4,0.1-0.5,0.2c-0.1,0.1-0.2,0.3-0.2,0.5  c0,0.2,0.1,0.4,0.2,0.5c0.1,0.1,0.3,0.2,0.5,0.2h4.7c0.2,0,0.4-0.1,0.5-0.2c0.1-0.1,0.2-0.3,0.2-0.5c0-0.2-0.1-0.4-0.2-0.5  c-0.1-0.1-0.3-0.2-0.5-0.2H129z"></path>	<path class="st0" d="M141.9,0.5h3.1v17.3h-3.1V0.5z"></path></g></svg>